# xmcd
#
# Track frame offsets:
#	157
#	14622
#	27290
#	48887
#	70617
#	93270
#	114872
#	133502
#	153000
#	169732
#	183207
#	202157
#	224480
#
# Disc length: 3307 seconds
#
# Revision: 1
# Processed by: cddbd v1.5.1PL0 Copyright (c) Steve Scherf et al.
# Submitted via: dBpowerAMP V4.0
#
DISCID=a60ce90d
DTITLE=The Police - Every Breath You Take
DYEAR=1986
DGENRE=Rock
TTITLE0=Roxanne
TTITLE1=Can't Stand Losing You
TTITLE2=So Lonely
TTITLE3=Message in a Bottle
TTITLE4=Walking on the Moon
TTITLE5=Don't Stand So Close To Me ('86 Remix)
TTITLE6=De Do Do Do De Da Da Da
TTITLE7=Every Little Thing She Does Is Magic
TTITLE8=Invisible Sun
TTITLE9=Spirits In The Natural World
TTITLE10=Every Breath You Take
TTITLE11=King Of Pain
TTITLE12=Wrapped Around Your Finger
EXTD=
EXTT0=
EXTT1=
EXTT2=
EXTT3=
EXTT4=
EXTT5=
EXTT6=
EXTT7=
EXTT8=
EXTT9=
EXTT10=
EXTT11=
EXTT12=
PLAYORDER=
